<?xml version="1.0" encoding="UTF-8" standalone="no"?>
<!-- Created with Inkscape (http://www.inkscape.org/) -->

<svg
   xmlns:svg="http://www.w3.org/2000/svg"
   xmlns="http://www.w3.org/2000/svg"
   version="1.1"
   width="64"
   height="64"
   id="svg3802">
  <defs
     id="defs3804" />
  <g
     id="layer1">
    <path
       d="m 12.373146,7.4573068 -0.261038,50.5213112 13.474459,0 0,-3.475378 -7.437324,-0.130519 0.261035,-42.832219 7.491395,0 -0.13052,-3.9843412 -13.398007,-0.09885 z"
       id="path3781"
       style="fill:#000000;fill-opacity:1;stroke:none" />
    <path
       d="m 137.85715,416.64789 a 6.0714288,6.0714288 0 1 1 -12.14286,0 6.0714288,6.0714288 0 1 1 12.14286,0 z"
       transform="matrix(0.51682863,0,0,0.51682863,-34.58705,-187.62833)"
       id="path3783"
       style="fill:#000000;fill-opacity:1;stroke:none" />
    <path
       d="m 30.754854,7.4032468 0,4.1530902 c 0,0 5.946609,-0.916151 8.121594,2.861014 2.800002,4.862592 -0.200591,16.123259 2.307273,17.258386 0,0 3.624793,1.415097 3.59934,3.507049 -0.04414,3.626535 -4.287259,2.754019 -4.522251,5.260576 0,0 0.827339,7.814981 -0.461455,12.643846 -0.752818,2.820659 -9.229082,1.384361 -9.229082,1.384361 l 0,3.691635 c 0,0 11.293765,0.907716 14.120492,-1.891965 4.150031,-4.110312 1.347993,-11.074402 2.768729,-15.366421 1.983045,-2.76354 5.798714,-1.793768 5.906612,-4.799121 0.116333,-3.240097 -4.46804,-3.374638 -5.906612,-6.275778 -1.98242,-3.997902 -1.015201,-12.920715 -1.015201,-12.920715 -0.08559,-3.102745 -3.830641,-6.9755792 -6.644938,-8.2138852 -2.814298,-1.238306 -9.044501,-1.292072 -9.044501,-1.292072 z"
       id="path3785"
       style="fill:#00ace5;fill-opacity:1;stroke:none" />
  </g>
</svg>
